<?xml version="1.0" encoding="utf-8"?>
<!-- Generator: Adobe Illustrator 19.2.1, SVG Export Plug-In . SVG Version: 6.00 Build 0)  -->
<svg version="1.1" id="Layer_1" xmlns="http://www.w3.org/2000/svg" xmlns:xlink="http://www.w3.org/1999/xlink" x="0px" y="0px"
	 viewBox="0 0 390.5 144.5" style="enable-background:new 0 0 390.5 144.5;" xml:space="preserve">
<style type="text/css">
	.st0{fill:#FFFFFF;stroke:#FFFFFF;stroke-width:2;stroke-miterlimit:10;}
	.st1{fill:#FFFFFF;stroke:#FFFFFF;}
</style>
<path class="st0" d="M173,135.4H25.2c-8.2,0-14.8-3-14.8-6.7V88.3c0-3.7,6.6-6.7,14.8-6.7H173c8.2,0,14.8,3,14.8,6.7v40.4
	C187.8,132.4,181.2,135.4,173,135.4z M49.8,97.9v-5.6c0-0.9-1.7-1.7-3.7-1.7H33.8c-2,0-3.7,0.8-3.7,1.7v5.6c0,0.9,1.7,1.7,3.7,1.7
	h12.3C48.2,99.5,49.8,98.8,49.8,97.9z M79.4,97.9v-5.6c0-0.9-1.7-1.7-3.7-1.7H63.4c-2,0-3.7,0.8-3.7,1.7v5.6c0,0.9,1.7,1.7,3.7,1.7
	h12.3C77.7,99.5,79.4,98.8,79.4,97.9z M108.9,97.9v-5.6c0-0.9-1.7-1.7-3.7-1.7H92.9c-2,0-3.7,0.8-3.7,1.7v5.6c0,0.9,1.7,1.7,3.7,1.7
	h12.3C107.3,99.5,108.9,98.8,108.9,97.9z M138.5,97.9v-5.6c0-0.9-1.7-1.7-3.7-1.7h-12.3c-2,0-3.7,0.8-3.7,1.7v5.6
	c0,0.9,1.7,1.7,3.7,1.7h12.3C136.9,99.5,138.5,98.8,138.5,97.9z M168.1,97.9v-5.6c0-0.9-1.7-1.7-3.7-1.7h-12.3c-2,0-3.7,0.8-3.7,1.7
	v5.6c0,0.9,1.7,1.7,3.7,1.7h12.3C166.4,99.5,168.1,98.8,168.1,97.9z M64.6,111.3v-5.6c0-0.9-1.7-1.7-3.7-1.7H48.6
	c-2,0-3.7,0.8-3.7,1.7v5.6c0,0.9,1.7,1.7,3.7,1.7h12.3C62.9,113,64.6,112.2,64.6,111.3z M94.2,111.3v-5.6c0-0.9-1.7-1.7-3.7-1.7
	H78.1c-2,0-3.7,0.8-3.7,1.7v5.6c0,0.9,1.7,1.7,3.7,1.7h12.3C92.5,113,94.2,112.2,94.2,111.3z M123.7,111.3v-5.6
	c0-0.9-1.7-1.7-3.7-1.7h-12.3c-2,0-3.7,0.8-3.7,1.7v5.6c0,0.9,1.7,1.7,3.7,1.7H120C122.1,113,123.7,112.2,123.7,111.3z M153.3,111.3
	v-5.6c0-0.9-1.7-1.7-3.7-1.7h-12.3c-2,0-3.7,0.8-3.7,1.7v5.6c0,0.9,1.7,1.7,3.7,1.7h12.3C151.6,113,153.3,112.2,153.3,111.3z
	 M49.8,124.8v-5.6c0-0.9-1.7-1.7-3.7-1.7H33.8c-2,0-3.7,0.8-3.7,1.7v5.6c0,0.9,1.7,1.7,3.7,1.7h12.3
	C48.2,126.4,49.8,125.7,49.8,124.8z M138.5,124.8v-5.6c0-0.9-1.7-1.7-3.7-1.7H63.4c-2,0-3.7,0.8-3.7,1.7v5.6c0,0.9,1.7,1.7,3.7,1.7
	h71.5C136.9,126.4,138.5,125.7,138.5,124.8z M168.1,124.8v-5.6c0-0.9-1.7-1.7-3.7-1.7h-12.3c-2,0-3.7,0.8-3.7,1.7v5.6
	c0,0.9,1.7,1.7,3.7,1.7h12.3C166.4,126.4,168.1,125.7,168.1,124.8z"/>
<g>
	<path class="st1" d="M92,8.7v14.8H59.3v51.6H42.1V23.5H9.4V8.7H92z"/>
	<path class="st1" d="M119.1,17.2l22.4,23.4l22.4-23.4h23.9l-38.2,37.1v20.9h-16.2V54.2L95.2,17.2H119.1z"/>
	<path class="st1" d="M247,17.2c5.8,0,10.8,2,14.9,5.9c4.1,3.9,6.2,8.7,6.2,14.3c0,5.5-2,10.3-6.2,14.3c-4.1,3.9-9,5.9-14.9,5.9
		h-37.5v17.6h-16.2v-58H247z M209.5,43.5h36.1c1.9-0.1,3.5-0.7,4.7-1.7c1.2-1.2,1.8-2.6,1.8-4.4c0-1.8-0.6-3.3-1.8-4.4
		c-1.2-1.2-2.7-1.7-4.7-1.7h-36.1V43.5z"/>
	<path class="st1" d="M344.3,17.2v14.1h-51.6V39h44.7v13.9h-44.7V61h51.6v14.1h-67.9v-58H344.3z"/>
</g>
<path class="st1" d="M268.3,81.6V136h-12.8v-34.5l-19.1,29.6h-11l-19.1-29.6V136h-12.8V81.6h13.3l24.2,38.1l24.2-38.1H268.3z"/>
<path class="st1" d="M343.6,81.6v12.1h-52.4v8.9h45.4v11.9h-45.4v9.4h52.4V136h-67.2V81.6H343.6z"/>
<g>
	<path class="st1" d="M379.8,17.2v43.4l-4.3,42.1h-17.4l-4.5-42.1V17.2H379.8z M379.8,109.8V136h-26.2v-26.2H379.8z"/>
</g>
</svg>
