<svg id="Layer_1" data-name="Layer 1" xmlns="http://www.w3.org/2000/svg" viewBox="0 0 509.17 243.55"><defs><style>.cls-1{fill:#fff;}.cls-2{fill:none;stroke:#fff;stroke-miterlimit:10;stroke-width:18px;}</style></defs><title>type-me-logo-w</title><path class="cls-1" d="M624.08,331.33H175.92c-24.75,0-36.69-6.08-27.31-13.09l70.62-52.79c4.56-3.41,21-6,36.87-6H543.91c15.9,0,32.31,2.64,36.87,6l70.62,52.79C660.77,325.26,648.83,331.33,624.08,331.33ZM292.44,275.06l4.31-5.8c0.68-.92-2.2-1.65-6.42-1.65H264.82c-4.23,0-8.42.73-9.37,1.65l-6,5.8c-1,1,1.75,1.84,6.26,1.84H282.9C287.41,276.9,291.69,276.07,292.44,275.06Zm64.54,0,1.73-5.8c0.27-.92-2.93-1.65-7.16-1.65H326c-4.23,0-8.09.73-8.63,1.65l-3.45,5.8c-0.6,1,2.57,1.84,7.08,1.84h27.23C352.77,276.9,356.67,276.07,357,275.06Zm64.54,0-0.86-5.8c-0.14-.92-3.67-1.65-7.9-1.65H387.25c-4.23,0-7.76.73-7.9,1.65l-0.86,5.8c-0.15,1,3.38,1.84,7.9,1.84h27.23C418.13,276.9,421.66,276.07,421.51,275.06Zm64.54,0-3.45-5.8c-0.55-.92-4.41-1.65-8.63-1.65H448.46c-4.23,0-7.43.73-7.16,1.65l1.73,5.8c0.3,1,4.2,1.84,8.72,1.84H479C483.49,276.9,486.65,276.07,486.05,275.06Zm64.54,0-6-5.8c-1-.92-5.14-1.65-9.37-1.65H509.67c-4.23,0-7.11.73-6.42,1.65l4.31,5.8c0.75,1,5,1.84,9.54,1.84h27.23C548.84,276.9,551.64,276.07,550.59,275.06ZM316.31,291.19l3.71-7.14c0.58-1.12-2.74-2-7.41-2H284.43c-4.67,0-9.19.9-10.11,2l-5.84,7.14c-1,1.25,2.21,2.27,7.24,2.27H306C311.06,293.47,315.66,292.44,316.31,291.19Zm71.73,0,0.53-7.14c0.08-1.12-3.64-2-8.31-2H352.08c-4.67,0-8.79.9-9.21,2l-2.65,7.14c-0.46,1.25,3.23,2.27,8.25,2.27h30.31C383.8,293.47,388,292.44,388,291.19Zm71.73,0-2.65-7.14c-0.42-1.12-4.54-2-9.21-2H419.73c-4.67,0-8.39.9-8.31,2l0.53,7.14c0.09,1.25,4.24,2.27,9.26,2.27h30.31C456.55,293.47,460.24,292.44,459.78,291.19Zm71.73,0-5.84-7.14c-0.92-1.12-5.44-2-10.11-2H487.38c-4.67,0-8,.9-7.41,2l3.71,7.14c0.65,1.25,5.25,2.27,10.28,2.27h30.31C529.3,293.47,532.53,292.44,531.51,291.19ZM265.45,311.37l6.68-9c1-1.4-2.35-2.53-7.57-2.53h-31.5c-5.22,0-10.62,1.12-12.08,2.53l-9.36,9c-1.65,1.58,1.59,2.88,7.25,2.88h34.17C258.71,314.26,264.27,313,265.45,311.37Zm242.19,0-5.35-9c-0.83-1.4-5.73-2.53-11-2.53H308.66c-5.22,0-10.12,1.12-11,2.53l-5.35,9c-0.94,1.58,2.88,2.88,8.54,2.88H499.1C504.77,314.26,508.58,313,507.64,311.37Zm80.73,0-9.36-9c-1.46-1.4-6.86-2.53-12.08-2.53h-31.5c-5.22,0-8.62,1.12-7.57,2.53l6.68,9c1.18,1.58,6.73,2.88,12.4,2.88h34.17C586.78,314.26,590,313,588.37,311.37Z" transform="translate(-145.42 -87.78)"/><path class="cls-1" d="M242.78,143.61V183h6.79q3.64,0,5.19,1.4a4.71,4.71,0,0,1,1.55,3.66,4.65,4.65,0,0,1-1.55,3.61q-1.55,1.4-5.19,1.4H226q-3.64,0-5.19-1.4a4.71,4.71,0,0,1-1.55-3.66,4.65,4.65,0,0,1,1.55-3.61q1.55-1.4,5.19-1.4h6.74V143.61H221.78v9.54q0,3.64-1.4,5.19a4.71,4.71,0,0,1-3.66,1.55,4.65,4.65,0,0,1-3.61-1.55q-1.4-1.55-1.4-5.19V133.47l52.23,0v19.62q0,3.64-1.4,5.19a4.71,4.71,0,0,1-3.66,1.55,4.65,4.65,0,0,1-3.61-1.55q-1.4-1.55-1.4-5.19v-9.54H242.78Z" transform="translate(-145.42 -87.78)"/><path class="cls-1" d="M292.7,192.79l-17.46-34.23a5.85,5.85,0,0,1-3.74-1.67,5.06,5.06,0,0,1,.27-7q1.55-1.4,5.19-1.4h9.2q3.64,0,5.19,1.4a4.71,4.71,0,0,1,1.55,3.66,4.65,4.65,0,0,1-1.55,3.61q-1.55,1.4-4.89,1.4l11.9,23.17,11.8-23.17a7,7,0,0,1-4.8-1.4,4.71,4.71,0,0,1-1.55-3.66,4.65,4.65,0,0,1,1.55-3.61q1.55-1.4,5.19-1.4H320q3.59,0,5.14,1.4a4.71,4.71,0,0,1,1.55,3.66,4.79,4.79,0,0,1-1.33,3.42,5.8,5.8,0,0,1-3.93,1.6L298.36,204.1q3.79,0,5,.74a4.86,4.86,0,0,1,2.36,4.33,4.65,4.65,0,0,1-1.55,3.62q-1.55,1.4-5.19,1.4H277q-3.64,0-5.19-1.4a4.65,4.65,0,0,1-1.55-3.62,4.71,4.71,0,0,1,1.55-3.66q1.55-1.4,5.19-1.4h10Z" transform="translate(-145.42 -87.78)"/><path class="cls-1" d="M346.26,187.57V204.1h6q3.64,0,5.19,1.4a4.71,4.71,0,0,1,1.55,3.66,4.65,4.65,0,0,1-1.55,3.62q-1.55,1.4-5.19,1.4H334.46q-3.64,0-5.19-1.4a5,5,0,0,1,0-7.28q1.57-1.4,5.16-1.4h1.72V158.56h-1.72q-3.64,0-5.19-1.4a4.71,4.71,0,0,1-1.55-3.66,4.65,4.65,0,0,1,1.55-3.61q1.55-1.4,5.19-1.4h11.8v3.44a27.63,27.63,0,0,1,7.33-3.59,26,26,0,0,1,7.77-1.18,24.46,24.46,0,0,1,17.61,7q7.28,7,7.28,16.06,0,10-8.61,16.48a26.21,26.21,0,0,1-16.18,5.41,26.65,26.65,0,0,1-7.67-1.13A32.48,32.48,0,0,1,346.26,187.57Zm29.9-17.31a12.61,12.61,0,0,0-1.67-5.39,14,14,0,0,0-5.14-5.46,14.93,14.93,0,0,0-8.14-2.19,14.38,14.38,0,0,0-12,5.66,12.38,12.38,0,0,0-3,7.48q0,4,4.3,7.84a16.85,16.85,0,0,0,21.32,0Q376.16,174.44,376.16,170.26Z" transform="translate(-145.42 -87.78)"/><path class="cls-1" d="M444.53,175.92H403.16a12.94,12.94,0,0,0,5.58,6.34q4,2.41,10.84,2.41a62.73,62.73,0,0,0,14.9-2.41,25.77,25.77,0,0,1,5.31-1,4.53,4.53,0,0,1,3.39,1.43,5,5,0,0,1,1.38,3.59,4.41,4.41,0,0,1-1.47,3.34q-2,1.82-9.59,3.47a69.37,69.37,0,0,1-14.66,1.65q-12.1,0-19.35-6.84a22.2,22.2,0,0,1-7.25-16.82,21.62,21.62,0,0,1,7.84-17.29,27.1,27.1,0,0,1,18.07-6.66,28.81,28.81,0,0,1,11.29,2.16A24,24,0,0,1,437.1,154a29.51,29.51,0,0,1,5.85,9,22.17,22.17,0,0,1,1.57,8.66v4.28Zm-11.16-10.08a15.76,15.76,0,0,0-6.05-6.47,19.49,19.49,0,0,0-17.75,0,16.07,16.07,0,0,0-6.1,6.47h29.9Z" transform="translate(-145.42 -87.78)"/><path class="cls-1" d="M463.9,153V183h3.64q3.64,0,5.19,1.4a4.71,4.71,0,0,1,1.55,3.66,4.66,4.66,0,0,1-1.55,3.61q-1.55,1.4-5.19,1.4H454.31q-3.64,0-5.19-1.4a5.07,5.07,0,0,1,0-7.28,6.8,6.8,0,0,1,4.72-1.4V143.61a6.23,6.23,0,0,1-4-1.62,5.09,5.09,0,0,1,.2-7.11q1.55-1.4,5.19-1.4l11.07,0L480,163.87l13.48-30.39,11.16,0q3.64,0,5.19,1.38A5,5,0,0,1,510,142a6.27,6.27,0,0,1-4,1.62V183a6.72,6.72,0,0,1,4.72,1.43,4.77,4.77,0,0,1,1.53,3.64,4.66,4.66,0,0,1-1.55,3.61q-1.55,1.4-5.19,1.4H492.23q-3.59,0-5.14-1.4a4.71,4.71,0,0,1-1.55-3.66,4.65,4.65,0,0,1,1.55-3.61q1.55-1.4,5.14-1.4h3.69V153l-11.56,26h-8.75Z" transform="translate(-145.42 -87.78)"/><path class="cls-1" d="M565.41,175.92H524.05a12.94,12.94,0,0,0,5.58,6.34q4,2.41,10.85,2.41a62.72,62.72,0,0,0,14.9-2.41,25.79,25.79,0,0,1,5.31-1,4.54,4.54,0,0,1,3.39,1.43,5,5,0,0,1,1.38,3.59,4.4,4.4,0,0,1-1.48,3.34q-2,1.82-9.59,3.47a69.39,69.39,0,0,1-14.66,1.65q-12.1,0-19.35-6.84a22.2,22.2,0,0,1-7.25-16.82A21.62,21.62,0,0,1,521,153.81a27.1,27.1,0,0,1,18.07-6.66,28.8,28.8,0,0,1,11.29,2.16A24,24,0,0,1,558,154a29.51,29.51,0,0,1,5.85,9,22.17,22.17,0,0,1,1.57,8.66v4.28Zm-11.16-10.08a15.76,15.76,0,0,0-6-6.47,19.49,19.49,0,0,0-17.75,0,16.08,16.08,0,0,0-6.1,6.47h29.9Z" transform="translate(-145.42 -87.78)"/><path class="cls-1" d="M588.06,139.38l-2.8,30.39a5.47,5.47,0,0,1-1.57,3.66,5.2,5.2,0,0,1-6.89,0,5.46,5.46,0,0,1-1.57-3.66l-2.85-30.39q-0.2-2.31-.2-3a8.39,8.39,0,0,1,2.31-6.17,8.19,8.19,0,0,1,11.48,0,8.12,8.12,0,0,1,2.34,6Q588.3,136.87,588.06,139.38Zm-1.62,50.07a4.8,4.8,0,0,1-1.62,3.66,7.43,7.43,0,0,1-9,0,4.92,4.92,0,0,1,0-7.28,7.55,7.55,0,0,1,9,0A4.76,4.76,0,0,1,586.43,189.44Z" transform="translate(-145.42 -87.78)"/><rect class="cls-2" x="32.92" y="9" width="443.33" height="148.44" rx="33.8" ry="33.8"/></svg>